<?xml version="1.0" standalone="no"?>
<!DOCTYPE svg PUBLIC "-//W3C//DTD SVG 20010904//EN"
 "http://www.w3.org/TR/2001/REC-SVG-20010904/DTD/svg10.dtd">
<svg version="1.0" xmlns="http://www.w3.org/2000/svg"
 width="2466.000000pt" height="2466.000000pt" viewBox="0 0 2466.000000 2466.000000"
 preserveAspectRatio="xMidYMid meet">
<metadata>
Created by potrace 1.14, written by Peter Selinger 2001-2017
</metadata>
<g transform="translate(0.000000,2466.000000) scale(0.100000,-0.100000)"
fill="#000000" stroke="none">
<path d="M11815 20269 c-1699 -102 -3314 -737 -4620 -1818 -367 -304 -771
-710 -1066 -1071 -662 -811 -1152 -1718 -1453 -2695 -77 -251 -76 -232 -28
-308 308 -488 383 -1175 207 -1894 -72 -292 -198 -619 -371 -966 l-97 -192 7
-70 c13 -150 111 -675 126 -675 4 0 38 23 76 52 94 70 294 273 384 388 99 128
250 359 250 382 0 10 -9 105 -20 211 -81 795 -32 1611 141 2381 74 328 197
729 319 1041 l47 120 -39 115 c-46 134 -65 179 -164 399 -41 90 -71 168 -67
172 27 25 359 237 416 266 87 43 285 110 356 119 47 6 56 11 78 43 340 503
543 757 878 1100 318 324 598 563 968 823 156 110 188 120 226 72 21 -27 21
-32 21 -906 l0 -880 -168 -172 c-272 -278 -477 -526 -676 -819 l-88 -127 27
-148 c14 -81 28 -162 31 -180 2 -17 7 -48 10 -68 l5 -36 57 54 c156 148 350
228 562 231 58 1 125 -1 150 -5 l45 -7 62 82 c162 217 431 505 643 691 754
662 1655 1064 2660 1187 212 26 694 37 906 20 957 -75 1820 -398 2579 -965
215 -160 486 -408 685 -627 l88 -97 114 60 c204 108 414 256 531 375 l57 59
-82 94 c-45 52 -134 148 -198 213 l-115 119 -169 -46 c-93 -25 -171 -45 -172
-43 -1 1 58 80 132 175 l133 173 1 781 c0 591 3 783 11 789 32 19 497 -328
803 -600 65 -58 124 -105 130 -105 6 1 51 9 100 18 115 21 315 21 437 0 417
-71 780 -338 966 -709 116 -231 166 -486 143 -733 -17 -185 -70 -383 -141
-524 l-29 -58 71 -152 c67 -144 180 -407 210 -491 11 -31 17 -37 34 -32 307
90 572 76 815 -43 41 -20 78 -38 82 -40 11 -5 -80 258 -157 453 -339 868 -822
1657 -1451 2375 -152 174 -511 533 -684 684 -827 725 -1745 1253 -2765 1591
-680 226 -1346 352 -2080 395 -198 11 -678 11 -880 -1z m602 -1113 c129 -257
145 -285 170 -290 15 -3 161 -24 322 -48 l295 -42 -234 -227 -233 -227 38
-224 c21 -122 46 -267 55 -320 16 -89 16 -97 1 -89 -9 5 -139 72 -288 150
l-273 143 -282 -149 c-155 -81 -285 -149 -288 -151 -3 -1 19 142 49 319 l55
321 -234 227 -234 227 305 43 c167 24 313 47 324 51 14 6 65 98 160 289 77
155 142 281 145 281 3 0 69 -128 147 -284z"/>
<path d="M16260 17921 l0 -229 83 -63 c45 -35 148 -119 229 -186 l147 -123 93
63 c52 35 131 79 177 98 l82 33 -29 26 c-17 14 -77 66 -134 115 -206 181 -614
495 -642 495 -3 0 -6 -103 -6 -229z"/>
<path d="M8050 17931 c-520 -392 -967 -833 -1371 -1353 -64 -82 -144 -189
-177 -237 l-61 -88 83 -7 c46 -4 121 -16 167 -27 l84 -20 17 23 c281 385 471
611 743 883 206 205 539 496 683 596 22 16 22 19 20 193 l-3 177 -185 -140z"/>
<path d="M16260 17352 l0 -261 77 -65 c42 -36 79 -66 82 -66 3 0 44 51 91 113
47 61 103 132 125 156 l40 43 -26 22 c-15 11 -78 64 -140 116 -63 53 -144 119
-181 149 l-68 53 0 -260z"/>
<path d="M8135 17439 c-282 -228 -644 -578 -869 -841 -115 -135 -356 -438
-356 -448 0 -4 33 -27 73 -53 39 -25 99 -69 131 -98 l59 -53 15 23 c48 72 221
296 326 421 148 177 453 490 610 625 l116 100 0 203 c0 111 -1 202 -3 202 -1
0 -47 -36 -102 -81z"/>
<path d="M17320 17194 c-81 -16 -183 -50 -241 -80 -61 -32 -179 -126 -179
-143 0 -4 15 -5 33 -3 121 14 231 -86 294 -265 25 -72 27 -90 27 -228 0 -154
-9 -208 -54 -332 -165 -449 -682 -854 -1485 -1163 -488 -188 -1106 -341 -1585
-394 -219 -24 -230 -25 -230 -12 0 7 14 52 30 102 50 145 108 356 136 497 21
102 27 163 28 267 1 134 1 136 -32 202 -66 135 -213 203 -467 215 l-120 5
-241 -658 -241 -659 -64 3 c-306 13 -639 70 -1389 237 -726 162 -885 188
-1170 189 -114 1 -212 -4 -255 -12 -262 -50 -477 -206 -594 -431 -89 -173
-110 -363 -55 -501 14 -34 21 -41 38 -37 12 3 82 21 157 40 410 106 1098 180
2008 217 376 15 1231 25 1231 14 0 -5 -189 -576 -420 -1270 l-420 -1260 -64
-80 c-77 -96 -181 -196 -256 -246 -80 -52 -147 -72 -225 -66 -147 12 -203 101
-177 283 18 121 51 227 192 605 131 350 195 547 227 694 25 113 25 371 0 436
-47 121 -145 210 -281 253 -100 31 -277 31 -391 -1 -118 -33 -284 -119 -415
-213 -129 -93 -397 -352 -500 -483 l-62 -80 9 50 c34 203 -64 340 -297 412
-83 25 -228 45 -304 40 l-59 -3 -329 -970 -330 -970 -63 -95 c-108 -162 -223
-263 -344 -300 -164 -51 -283 -2 -323 134 -16 52 -15 257 1 361 7 44 39 220
72 390 95 495 115 671 98 852 -13 139 -31 191 -84 251 -90 100 -207 136 -442
136 -91 0 -167 -4 -172 -9 -15 -17 -699 -2367 -710 -2442 -16 -105 -13 -305 5
-414 46 -267 163 -453 338 -539 149 -73 307 -76 521 -9 133 41 242 94 370 180
178 119 404 353 543 562 25 37 48 67 51 67 4 0 15 -22 24 -48 50 -137 183
-275 341 -352 166 -81 337 -120 597 -135 l117 -7 5 483 c6 472 10 566 42 854
95 854 346 1397 694 1499 98 29 158 16 197 -41 15 -22 19 -45 18 -108 -1 -80
-1 -81 -221 -645 -316 -808 -318 -814 -317 -1115 1 -223 14 -290 90 -444 78
-159 213 -275 370 -316 86 -23 230 -21 339 4 293 69 629 346 909 748 l51 74
17 -91 c34 -182 89 -301 184 -396 137 -138 341 -182 593 -129 383 80 746 366
1102 866 l74 104 7 -85 c21 -272 87 -460 198 -571 241 -241 674 -100 1130 367
141 145 236 263 352 439 44 66 82 122 84 124 3 3 -7 -26 -22 -65 -180 -470
-219 -1006 -103 -1421 16 -55 40 -127 54 -159 14 -31 23 -59 21 -62 -3 -2 -51
12 -108 32 -557 191 -996 262 -1398 227 -411 -37 -675 -150 -900 -387 -255
-268 -359 -629 -280 -970 65 -282 260 -472 558 -546 122 -31 321 -30 445 0
182 45 333 123 451 234 62 58 69 67 51 73 -102 34 -171 89 -213 170 -37 69
-38 188 -4 253 73 137 271 263 482 309 124 26 379 24 565 -5 175 -28 459 -94
915 -215 735 -196 1057 -250 1470 -250 300 0 517 33 779 119 640 209 1133 692
1478 1446 222 487 367 962 573 1878 97 434 160 686 235 950 177 620 368 1074
542 1287 l43 53 -58 28 c-191 96 -411 127 -586 82 -263 -67 -494 -310 -616
-648 -13 -35 -26 -59 -30 -55 -4 4 -13 26 -20 48 -7 22 -28 72 -48 110 -123
247 -328 403 -557 424 -230 20 -441 -56 -678 -245 -667 -533 -1224 -1751
-1183 -2589 7 -155 24 -238 65 -329 108 -238 319 -386 550 -386 322 0 624 214
1079 767 64 78 118 140 119 139 2 -2 -20 -70 -48 -151 -155 -456 -345 -852
-574 -1195 -128 -192 -208 -292 -355 -444 -379 -391 -771 -566 -1267 -566
-126 0 -273 10 -273 19 0 3 22 18 48 32 261 146 574 510 717 833 l26 60 -40
-42 c-123 -126 -336 -165 -545 -98 -95 30 -161 72 -230 147 -106 114 -155 258
-163 486 -7 172 7 310 52 538 60 294 135 543 417 1375 79 234 164 504 188 600
41 163 44 184 45 310 0 121 -2 139 -22 177 -73 136 -263 216 -517 217 l-120 1
-139 -338 c-77 -185 -142 -335 -145 -333 -2 3 -19 41 -36 84 -52 128 -112 219
-205 313 -146 146 -304 207 -505 196 -123 -7 -207 -31 -337 -99 -508 -264
-1047 -1051 -1288 -1882 -42 -148 -53 -166 -181 -314 -73 -85 -199 -189 -275
-225 -62 -31 -157 -37 -203 -13 -42 22 -80 67 -98 116 -22 60 -30 289 -15 418
40 322 193 925 451 1767 51 165 100 325 109 355 l17 55 204 7 c1392 46 2945
382 3668 792 151 86 248 159 362 275 186 188 313 423 361 671 20 105 16 300
-9 403 -76 310 -253 534 -523 661 -143 68 -229 88 -394 91 -77 2 -151 1 -165
-1z m2447 -3400 c48 -23 101 -78 123 -126 l17 -38 -194 -558 c-216 -622 -183
-557 -336 -673 -163 -123 -371 -199 -468 -170 -56 17 -102 66 -120 128 -22 75
-17 249 11 363 78 323 251 656 452 865 190 199 376 275 515 209z m-3653 -415
c53 -13 110 -59 135 -107 l18 -37 -236 -567 c-171 -411 -248 -584 -279 -628
-52 -73 -173 -172 -262 -214 -54 -25 -77 -30 -141 -31 -68 0 -79 3 -113 29
-65 49 -81 100 -80 251 0 106 5 150 27 237 85 343 290 707 508 905 102 92 174
134 274 159 64 16 96 17 149 3z"/>
<path d="M19250 12908 c-36 -84 -70 -188 -60 -188 9 0 93 230 87 237 -3 2 -15
-20 -27 -49z"/>
<path d="M16260 16878 l1 -123 30 35 c16 19 41 52 56 73 l26 38 -29 30 c-16
17 -41 40 -56 51 l-28 19 0 -123z"/>
<path d="M8084 16768 c-276 -263 -523 -538 -731 -816 l-93 -122 37 -58 c31
-48 77 -147 106 -225 5 -15 21 2 74 80 194 285 401 539 635 779 l128 130 0
182 c0 100 -4 182 -8 182 -4 0 -71 -60 -148 -132z"/>
<path d="M16833 16562 c-9 -6 -3 -18 22 -42 l35 -34 0 26 c0 52 -23 72 -57 50z"/>
<path d="M16555 16489 c-99 -27 -186 -52 -193 -54 -9 -3 21 -42 84 -108 53
-56 133 -144 178 -194 44 -51 83 -93 87 -93 23 0 117 161 150 259 29 83 26 93
-47 171 -37 38 -69 70 -73 69 -3 0 -87 -23 -186 -50z"/>
<path d="M12015 16500 c-177 -11 -260 -22 -244 -30 51 -28 409 -88 689 -116
258 -25 911 -21 895 6 -3 5 -54 20 -114 34 -404 95 -828 131 -1226 106z"/>
<path d="M11225 16375 c-351 -94 -682 -226 -990 -397 -98 -54 -425 -263 -425
-272 0 -2 114 -3 253 -3 138 0 326 -5 416 -12 152 -11 498 -57 609 -82 129
-28 311 -78 580 -158 321 -96 486 -137 712 -175 156 -26 458 -62 465 -55 3 4
355 956 355 962 0 1 -138 2 -308 2 -516 0 -880 48 -1302 173 -85 25 -173 46
-195 48 -23 2 -94 -11 -170 -31z"/>
<path d="M13665 16230 c-4 -6 9 -10 32 -10 21 0 56 -3 78 -6 l40 -5 -34 15
c-37 18 -107 21 -116 6z"/>
<path d="M14297 15955 c107 -119 160 -264 170 -457 4 -79 10 -118 17 -118 41
0 478 138 472 149 -3 4 -51 44 -108 88 -163 127 -345 248 -553 368 l-50 29 52
-59z"/>
<path d="M6303 15865 c-39 -7 -102 -23 -140 -35 -75 -25 -243 -109 -250 -125
-2 -6 16 -58 41 -116 135 -323 234 -721 283 -1144 22 -190 25 -812 5 -1005
-60 -581 -181 -1088 -379 -1589 -281 -714 -702 -1294 -1158 -1595 -236 -157
-481 -238 -725 -240 -107 -1 -136 2 -200 23 -63 21 -84 34 -132 81 -74 74 -93
134 -85 265 11 174 77 331 371 878 335 624 458 910 556 1292 121 473 119 930
-6 1305 -74 222 -180 397 -339 556 -222 222 -498 356 -879 427 -108 19 -154
22 -436 22 -330 0 -393 -5 -633 -51 -548 -106 -1039 -370 -1364 -734 -256
-287 -411 -632 -454 -1006 -45 -402 144 -766 486 -936 141 -70 261 -98 422
-98 247 0 479 97 652 274 56 56 62 66 45 71 -236 76 -380 218 -440 436 -28 98
-25 317 5 428 120 452 525 816 1041 938 140 33 388 43 500 19 195 -41 360
-167 445 -340 61 -123 76 -188 82 -343 16 -399 -140 -779 -599 -1457 -86 -127
-237 -350 -336 -496 -227 -335 -331 -508 -443 -735 -184 -374 -256 -684 -229
-983 30 -338 128 -572 319 -763 167 -166 387 -268 672 -310 121 -18 410 -15
546 5 781 118 1523 636 2191 1531 694 928 1216 2198 1387 3370 50 340 69 805
45 1092 -23 287 -87 594 -153 735 -130 278 -397 411 -714 353z"/>
<path d="M9745 15538 c-86 -6 -152 -15 -172 -25 -71 -33 -423 -394 -584 -598
-90 -113 -86 -99 -46 -201 37 -93 67 -218 67 -279 0 -32 3 -36 20 -31 11 3 28
8 38 11 12 4 25 29 41 82 99 338 374 635 704 762 182 69 374 97 617 88 289
-11 481 -44 1198 -203 510 -113 736 -158 947 -188 184 -26 164 -30 191 43 13
35 23 65 22 66 -2 1 -55 8 -118 14 -334 35 -625 97 -1043 222 -166 50 -374
108 -462 129 -405 98 -945 139 -1420 108z"/>
<path d="M18532 15382 c-34 -54 -94 -134 -132 -179 l-70 -82 53 -123 c30 -68
73 -175 97 -238 24 -63 45 -117 46 -119 2 -2 43 22 91 54 48 31 130 77 180
101 l93 45 -17 42 c-73 189 -260 597 -272 597 -3 -1 -34 -45 -69 -98z"/>
<path d="M14910 15344 c-85 -29 -222 -71 -304 -94 -82 -22 -151 -42 -153 -44
-4 -3 -43 -190 -43 -203 0 -18 815 184 862 213 16 10 -163 184 -187 183 -11
-1 -90 -26 -175 -55z"/>
<path d="M18270 15064 c-34 -37 -203 -172 -267 -212 l-51 -33 47 -117 c26 -64
72 -183 101 -264 l52 -147 107 107 c58 59 136 131 173 161 l66 53 -25 67 c-33
88 -129 314 -157 368 l-22 44 -24 -27z"/>
<path d="M22919 15046 c-722 -150 -1442 -987 -1669 -1941 -44 -185 -62 -339
-62 -530 0 -268 39 -461 127 -642 158 -322 447 -478 849 -460 460 22 925 255
1333 669 238 242 403 459 591 782 l82 139 -73 47 c-39 25 -88 56 -108 67 l-35
22 -44 -66 c-186 -283 -604 -493 -1015 -510 -99 -4 -146 -1 -198 11 -139 33
-249 112 -310 223 -37 69 -67 191 -67 273 l0 67 99 -5 c567 -27 1199 393 1367
908 24 74 27 102 28 215 1 164 -18 255 -84 390 -78 162 -197 267 -364 322 -70
23 -101 27 -231 29 -99 2 -172 -2 -216 -10z m349 -797 c65 -32 96 -84 96 -164
0 -96 -50 -189 -152 -287 -176 -168 -407 -255 -751 -284 l-84 -7 6 35 c17 106
125 308 237 444 104 125 263 235 390 268 86 23 205 20 258 -5z"/>
<path d="M5670 14814 c-356 -897 -511 -1783 -479 -2749 7 -216 30 -507 47
-606 l8 -44 47 86 c69 126 156 313 223 479 l59 145 6 350 c12 630 86 1143 244
1700 25 87 45 170 45 185 0 89 -80 564 -108 639 -7 20 -21 -7 -92 -185z"/>
<path d="M8095 14839 c-188 -31 -329 -160 -406 -369 -139 -381 -22 -696 287
-773 139 -35 220 -30 329 22 278 131 428 616 277 895 -62 115 -199 206 -337
226 -79 11 -81 11 -150 -1z"/>
<path d="M17735 14706 c-88 -45 -162 -82 -164 -83 -1 -1 20 -59 47 -130 69
-176 116 -312 166 -485 l42 -146 76 106 c41 59 104 142 139 186 35 43 68 84
73 92 7 8 -4 51 -33 131 -70 193 -164 413 -175 411 -6 0 -83 -37 -171 -82z"/>
<path d="M17425 14564 c-44 -18 -104 -41 -132 -50 -29 -10 -53 -20 -53 -23 0
-3 21 -15 47 -25 75 -31 188 -112 248 -179 121 -133 170 -284 163 -503 -2 -74
-3 -134 -2 -134 1 0 27 42 58 94 l57 95 -79 238 c-95 283 -190 517 -212 519
-8 1 -51 -13 -95 -32z"/>
<path d="M9028 14243 c-10 -2 -20 -14 -22 -26 -3 -12 -10 -51 -16 -87 -24
-137 -97 -316 -179 -440 -101 -153 -281 -296 -428 -340 -24 -7 -43 -14 -43
-16 0 -2 31 -34 68 -72 37 -38 81 -94 97 -125 22 -41 34 -55 45 -51 90 37 287
108 370 134 58 17 110 37 116 43 6 7 44 109 84 227 40 118 77 217 81 220 5 3
-14 51 -41 105 -61 121 -88 224 -92 344 -2 53 -7 90 -13 90 -5 -1 -18 -3 -27
-6z"/>
<path d="M5856 13873 c-91 -381 -152 -792 -176 -1190 -11 -192 -12 -239 -5
-231 3 2 23 74 44 159 69 268 118 544 146 819 16 162 32 550 22 550 -3 0 -17
-48 -31 -107z"/>
<path d="M14535 13959 c-44 -4 -157 -10 -252 -14 -94 -5 -177 -11 -183 -15 -6
-4 -29 -65 -51 -136 -34 -110 -181 -607 -224 -756 l-14 -48 69 0 69 0 47 88
c168 311 368 603 555 805 39 43 70 79 68 80 -2 1 -40 -1 -84 -4z"/>
<path d="M12028 13890 c-124 -3 -229 -7 -232 -10 -2 -3 25 -28 62 -55 156
-117 267 -322 288 -532 4 -35 10 -63 15 -63 4 0 56 145 115 323 59 177 109
328 112 335 3 9 -13 11 -64 10 -38 -1 -171 -5 -296 -8z"/>
<path d="M10490 13798 c-274 -33 -639 -92 -669 -108 -8 -4 13 -14 55 -24 97
-24 208 -70 282 -117 l63 -39 67 59 c77 67 215 170 278 207 24 14 44 28 44 30
0 5 -28 3 -120 -8z"/>
<path d="M7476 13524 c-4 -20 -5 -38 -3 -41 9 -9 78 9 74 20 -2 6 -17 21 -34
34 l-31 24 -6 -37z"/>
<path d="M8920 13059 c-14 -5 -94 -35 -179 -66 l-153 -57 7 -50 c17 -120 22
-261 14 -394 -8 -128 -54 -431 -93 -617 -8 -38 -13 -72 -11 -74 3 -2 15 3 27
11 19 12 60 125 212 574 104 308 200 587 212 622 25 68 22 73 -36 51z"/>
<path d="M13765 12818 c-29 -82 -148 -630 -143 -656 2 -10 19 30 36 88 46 149
106 316 163 452 27 65 49 120 49 123 0 12 -101 4 -105 -7z"/>
<path d="M17118 11774 c-9 -33 -33 -146 -52 -250 -20 -104 -45 -232 -56 -284
-37 -174 -21 -401 33 -482 12 -17 36 -40 53 -50 41 -24 152 -35 183 -19 20 11
45 2 214 -78 106 -49 198 -91 206 -93 13 -3 27 28 56 125 l14 47 -52 26 c-197
100 -375 288 -473 500 -63 135 -98 318 -107 554 l-2 65 -17 -61z"/>
<path d="M8467 11603 c-4 -3 -7 -16 -6 -27 0 -19 1 -19 10 3 10 24 8 36 -4 24z"/>
<path d="M6416 10663 l-38 -66 33 -111 34 -111 6 175 c4 96 6 176 5 177 0 1
-18 -28 -40 -64z"/>
<path d="M17772 10613 c-40 -130 -47 -113 73 -168 58 -26 108 -52 111 -57 3
-4 -15 -54 -41 -109 -25 -56 -44 -103 -42 -105 4 -5 154 125 205 179 38 38 48
60 77 153 l33 109 -107 7 c-91 6 -214 30 -272 53 -14 5 -21 -7 -37 -62z"/>
<path d="M18239 10618 c-15 -13 -54 -126 -46 -134 3 -3 41 42 110 134 7 9 2
12 -20 12 -16 0 -36 -6 -44 -12z"/>
<path d="M13675 10490 c-42 -43 -41 -45 20 -29 69 18 67 16 49 44 -9 14 -19
25 -23 25 -4 0 -25 -18 -46 -40z"/>
<path d="M6259 10413 c-35 -53 -99 -147 -142 -207 l-79 -109 33 -91 c89 -252
354 -826 380 -826 15 0 358 151 364 160 2 4 -49 113 -114 243 -137 274 -218
465 -311 735 l-66 193 -65 -98z"/>
<path d="M11742 10191 c-40 -36 -70 -70 -66 -74 4 -4 45 -7 90 -7 45 0 117 -5
159 -11 42 -6 79 -8 81 -6 3 2 -15 17 -38 32 -24 16 -68 52 -98 81 l-55 52
-73 -67z"/>
<path d="M5959 9992 c-15 -20 -77 -97 -138 -170 -61 -73 -111 -137 -111 -143
0 -24 283 -623 306 -648 10 -10 374 113 374 126 0 3 -29 60 -64 127 -87 163
-203 415 -272 589 -31 78 -59 145 -63 149 -3 4 -18 -10 -32 -30z"/>
<path d="M12830 10004 c-47 -12 -120 -26 -163 -29 -43 -4 -76 -10 -73 -12 2
-2 55 -18 117 -35 l113 -30 24 28 c69 85 83 104 75 103 -4 -1 -46 -12 -93 -25z"/>
<path d="M10110 10000 c0 -5 7 -10 16 -10 8 0 12 5 9 10 -3 6 -10 10 -16 10
-5 0 -9 -4 -9 -10z"/>
<path d="M11405 9939 c-121 -75 -314 -146 -457 -169 -49 -8 -130 -11 -220 -7
-155 5 -235 23 -355 77 l-65 30 -94 -22 -94 -21 0 -102 0 -102 -191 -8 c-104
-3 -247 -4 -317 0 -127 7 -127 7 -207 -25 -84 -33 -197 -81 -204 -87 -8 -6
195 -206 309 -307 184 -162 473 -376 508 -376 8 0 103 22 211 49 715 178 1411
206 2133 86 81 -14 151 -25 155 -25 5 0 9 51 9 113 3 210 57 427 154 619 27
54 46 100 42 102 -4 2 -117 32 -251 65 -399 100 -503 116 -906 136 -110 6
-110 6 -160 -26z"/>
<path d="M9044 9677 c21 -26 43 -47 50 -47 6 0 29 9 51 19 l40 18 -74 22 c-40
13 -81 25 -90 29 -8 3 2 -15 23 -41z"/>
<path d="M5579 9548 c-113 -123 -329 -321 -455 -421 -51 -39 -93 -77 -93 -83
-1 -18 259 -528 343 -674 360 -619 767 -1150 1266 -1651 476 -478 947 -847
1522 -1195 1695 -1026 3729 -1380 5673 -989 1379 278 2629 899 3705 1841 171
150 530 508 684 684 528 600 976 1293 1289 1990 104 232 104 229 1 129 -104
-101 -147 -139 -230 -201 -504 -383 -1136 -566 -1819 -528 -435 25 -703 78
-1642 325 l-183 48 -57 -54 c-489 -462 -1131 -841 -1793 -1059 -676 -222
-1414 -293 -2130 -204 -869 108 -1719 464 -2405 1008 -234 186 -527 469 -704
681 -77 92 -234 297 -272 355 l-16 24 -69 -41 c-379 -229 -807 -299 -1105
-183 l-46 18 -79 -32 c-43 -18 -178 -74 -299 -126 -121 -51 -266 -110 -323
-131 -113 -42 -305 -99 -333 -99 -14 0 -33 27 -69 99 -62 124 -187 402 -225
499 -15 39 -31 72 -35 72 -4 0 -49 -46 -101 -102z m1723 -923 c77 -154 102
-196 120 -200 13 -2 106 -16 208 -30 102 -14 190 -28 196 -30 7 -2 -59 -74
-146 -160 l-157 -156 37 -217 c21 -119 37 -218 36 -219 0 -1 -89 45 -196 102
l-195 103 -165 -85 c-91 -47 -180 -94 -197 -105 -24 -14 -33 -16 -33 -7 0 8
16 108 36 223 l36 209 -156 149 c-86 83 -156 153 -156 157 0 4 90 19 200 35
109 15 208 30 218 33 13 3 49 66 113 198 52 107 96 194 99 195 3 0 49 -88 102
-195z m9954 -556 c11 -4 105 -19 209 -34 105 -14 197 -28 205 -31 10 -4 -35
-53 -145 -158 l-159 -153 33 -199 c18 -109 35 -210 38 -223 6 -23 1 -21 -88
26 -52 28 -141 75 -199 106 l-105 55 -195 -103 c-107 -57 -196 -102 -197 -101
-2 1 14 101 34 221 l37 219 -159 152 c-108 103 -155 154 -145 157 8 3 98 17
200 31 102 15 194 29 206 31 16 4 45 53 120 206 l99 202 96 -199 c60 -123 104
-201 115 -205z m-7956 -153 c173 -39 328 -105 503 -213 406 -252 542 -571 382
-898 -100 -205 -303 -352 -675 -490 -183 -68 -233 -92 -224 -106 10 -16 101
-54 159 -67 91 -20 160 -23 248 -12 376 46 718 293 908 654 91 174 128 323
129 523 l0 121 71 12 c40 7 111 10 158 8 120 -7 190 -36 263 -108 48 -48 60
-68 79 -130 18 -61 21 -86 15 -158 -3 -47 -9 -96 -13 -110 -5 -22 -3 -24 13
-17 150 63 292 47 397 -45 61 -54 91 -126 84 -200 -13 -145 -148 -276 -303
-296 l-54 -6 25 -30 c77 -92 52 -210 -92 -436 -36 -57 -63 -105 -60 -108 12
-12 295 320 452 531 99 132 260 374 339 506 l56 96 58 -4 c246 -17 351 -73
376 -202 8 -45 -7 -96 -65 -220 -27 -57 -49 -105 -49 -106 0 -1 26 4 58 11 80
19 199 18 263 -3 79 -26 151 -99 175 -178 10 -33 19 -61 19 -63 1 -1 47 43
101 99 173 178 362 302 554 365 110 35 273 40 359 10 83 -29 164 -112 187
-192 l18 -62 68 53 c50 39 178 113 226 131 1 0 -5 18 -14 40 -22 53 -15 154
16 219 35 73 141 175 226 218 194 98 372 94 450 -9 25 -32 29 -46 29 -98 0
-34 -4 -68 -8 -78 -6 -12 8 -34 57 -88 36 -39 73 -84 83 -100 9 -17 20 -30 24
-30 3 0 15 24 26 53 l20 52 188 8 c103 4 190 6 192 3 3 -2 -12 -51 -32 -108
-84 -236 -234 -450 -477 -683 -146 -141 -270 -229 -433 -309 -187 -92 -262
-111 -455 -111 -146 0 -159 2 -219 27 l-64 27 -76 -63 c-178 -147 -342 -233
-553 -292 -124 -34 -339 -44 -441 -20 -118 28 -208 85 -253 162 -20 34 -31 43
-45 39 -11 -3 -29 -8 -41 -11 -13 -4 -50 -32 -83 -62 -102 -94 -219 -164 -352
-208 -103 -34 -276 -44 -376 -20 -38 9 -70 16 -73 16 -2 0 -4 -11 -4 -23 l0
-24 -102 14 c-234 31 -374 73 -479 144 l-57 38 -58 -19 c-89 -27 -244 -44
-342 -36 -230 18 -393 100 -458 232 -24 48 -26 63 -22 132 5 80 25 133 76 201
14 19 19 32 11 28 -131 -56 -273 -109 -349 -131 -600 -170 -1244 -32 -1626
349 -181 180 -233 369 -148 536 57 114 197 206 387 254 53 13 203 42 334 65
346 59 490 101 593 171 55 38 100 101 100 141 0 83 -203 187 -366 188 -133 0
-253 -80 -225 -152 5 -13 43 -61 85 -108 48 -54 72 -88 66 -94 -5 -5 -87 -10
-182 -10 -166 -1 -176 0 -242 26 -152 62 -267 163 -333 296 -31 62 -37 86 -41
156 -5 104 13 166 70 230 77 88 202 152 354 181 110 21 297 13 434 -19z"/>
<path d="M8891 7814 c-79 -17 -195 -71 -243 -112 -128 -114 -89 -332 83 -458
64 -47 165 -84 229 -84 l49 0 -24 36 c-45 67 -45 143 0 205 109 147 393 164
637 37 121 -62 188 -150 188 -244 0 -47 -44 -126 -97 -176 -106 -98 -236 -144
-608 -213 -276 -52 -368 -74 -474 -116 -199 -77 -286 -219 -237 -383 54 -178
312 -381 610 -480 590 -196 1339 7 1802 487 234 242 367 507 381 758 5 81 3
102 -15 141 -36 83 -125 128 -254 128 l-68 0 0 -101 c0 -505 -378 -1008 -880
-1173 -145 -47 -234 -59 -382 -53 -138 5 -209 22 -316 73 -92 44 -152 102
-152 145 0 69 38 94 272 180 202 75 283 110 373 162 149 86 242 179 303 302
125 255 25 502 -285 708 -172 115 -379 202 -551 232 -104 18 -256 18 -341 -1z"/>
<path d="M14838 6977 c-115 -42 -205 -138 -215 -229 -7 -60 23 -99 130 -173
104 -71 138 -115 145 -185 20 -206 -374 -441 -520 -311 -27 24 -31 34 -31 75
2 89 84 166 176 166 57 0 81 -30 74 -91 -6 -48 -6 -48 18 -39 98 37 185 137
185 210 0 41 -45 86 -92 95 -86 16 -257 -53 -360 -145 -31 -28 -79 -83 -105
-123 -43 -64 -63 -105 -105 -220 -18 -46 -123 -133 -222 -181 -115 -57 -220
-86 -311 -86 -109 0 -166 39 -181 123 -6 35 -5 37 20 37 89 0 245 51 356 116
78 45 200 164 229 222 60 118 24 244 -84 293 -56 26 -173 25 -261 -2 -284 -86
-603 -390 -729 -696 -35 -84 -64 -117 -135 -153 -55 -28 -130 -53 -130 -43 0
3 8 17 19 31 69 99 129 267 138 387 19 267 -142 336 -445 190 -51 -24 -125
-66 -165 -92 -108 -72 -104 -70 -82 -37 128 194 295 514 302 578 9 72 -38 105
-172 121 l-50 6 -60 -103 c-166 -287 -503 -747 -692 -944 -109 -113 -297 -151
-356 -72 -17 23 -18 30 -7 64 7 22 51 98 98 169 107 164 142 236 142 296 0 71
-40 104 -165 135 l-68 17 -36 -39 c-20 -22 -91 -101 -158 -175 -67 -74 -191
-202 -276 -285 -136 -132 -156 -156 -175 -207 -38 -100 -28 -164 36 -230 117
-120 448 -123 686 -6 32 16 59 29 61 29 2 0 6 -14 10 -31 9 -42 59 -96 114
-124 49 -24 161 -59 223 -70 37 -6 37 -5 48 37 16 61 72 180 80 171 4 -4 12
-26 18 -48 16 -58 64 -110 130 -142 52 -26 66 -28 167 -28 100 1 118 4 190 33
95 38 208 110 290 188 54 50 68 58 137 75 61 15 159 53 219 86 4 2 10 -18 14
-44 22 -153 120 -231 299 -241 299 -15 654 161 887 441 l48 57 15 -27 c21 -42
65 -79 121 -104 74 -34 224 -38 336 -10 231 57 528 265 739 518 117 141 228
315 254 401 7 21 5 22 -43 22 -47 0 -50 -1 -61 -34 -15 -47 -120 -204 -177
-266 l-48 -52 0 94 c0 85 -3 99 -33 160 -18 36 -64 103 -103 148 -39 45 -77
96 -84 114 -12 29 -12 37 7 73 19 37 20 45 8 73 -7 17 -25 37 -41 45 -39 21
-124 17 -191 -8z m-973 -701 c39 -59 -62 -164 -215 -224 -61 -24 -190 -56
-197 -48 -8 7 33 80 75 133 101 128 293 207 337 139z m-1540 -236 c49 -54 -7
-209 -118 -326 l-65 -69 -146 0 c-80 0 -145 2 -143 5 1 3 45 71 98 151 99 150
154 206 239 243 51 22 113 20 135 -4z"/>
<path d="M11389 6830 c-72 -38 -136 -143 -125 -205 18 -93 134 -152 239 -121
92 27 160 110 161 198 1 56 -22 92 -80 125 -51 29 -143 31 -195 3z"/>
<path d="M11141 6522 c-15 -28 -15 -29 18 -34 25 -4 28 -2 21 11 -25 43 -27
45 -39 23z"/>
<path d="M6841 9440 c23 -43 45 -78 48 -76 3 2 24 11 45 20 l40 17 -65 43
c-35 24 -70 51 -78 60 -34 40 -29 9 10 -64z"/>
<path d="M11180 8864 c-274 -19 -556 -61 -805 -119 -82 -19 -153 -35 -157 -35
-32 0 16 -30 170 -107 655 -329 1385 -485 2090 -444 191 11 340 26 350 35 2 3
-21 33 -51 69 -96 114 -176 273 -213 425 -9 41 -22 76 -28 78 -28 10 -329 57
-481 75 -131 16 -244 22 -495 24 -179 1 -350 1 -380 -1z"/>
</g>
</svg>
