<?xml version="1.0" encoding="UTF-8"?><svg id="Ebene_1" xmlns="http://www.w3.org/2000/svg" xmlns:xlink="http://www.w3.org/1999/xlink" viewBox="0 0 2466.43 1728.26"><defs><style>.cls-1{stroke-width:15.97px;}.cls-1,.cls-2,.cls-3,.cls-4{stroke:#f2d0a7;stroke-miterlimit:10;}.cls-1,.cls-4{fill:none;}.cls-5{fill:#f2d0a7;}.cls-5,.cls-6,.cls-7{stroke-width:0px;}.cls-2{fill:#0d003f;}.cls-2,.cls-3{stroke-width:69px;}.cls-6{fill:#f16463;}.cls-3{fill:#171537;}.cls-7{fill:#fff7ac;}.cls-8{clip-path:url(#clippath);}</style><clipPath id="clippath"><circle class="cls-4" cx="1227.23" cy="864.13" r="452.15"/></clipPath></defs><circle class="cls-3" cx="1227.23" cy="864.13" r="829.63"/><circle class="cls-2" cx="1227.23" cy="864.13" r="452.15"/><polygon class="cls-5" points="1227.23 151.24 1256.19 209.9 1320.92 219.31 1274.08 264.97 1285.14 329.45 1227.23 299.01 1169.33 329.45 1180.39 264.97 1133.54 219.31 1198.28 209.9 1227.23 151.24"/><polygon class="cls-5" points="720.34 1213.8 740.28 1254.2 784.87 1260.68 752.61 1292.13 760.22 1336.53 720.34 1315.57 680.47 1336.53 688.08 1292.13 655.82 1260.68 700.4 1254.2 720.34 1213.8"/><polygon class="cls-5" points="1704.77 1249.87 1724.71 1290.27 1769.3 1296.75 1737.04 1328.2 1744.65 1372.6 1704.77 1351.64 1664.9 1372.6 1672.51 1328.2 1640.25 1296.75 1684.84 1290.27 1704.77 1249.87"/><g class="cls-8"><path class="cls-1" d="m647.23,553.13c124-107,296-157,460-115,31,8,59,19,91,25,57,10,110,11,166,3,102-16,193-59,270-124"/><path class="cls-1" d="m653.23,668.13c37-31,77-57,120-78,7-3,13-6,19-9,47-21,94-34,145-42,26-3,51-5,77-5,13,1,27,1,40,2,15,1,30,4,45,6,32,6,60,16,91,25,69,18,136,22,206,11,49-8,95-21,140-41,1-1,3-2,4-3l15-6c10-5,19-10,29-15,33-19,62-39,91-63"/><path class="cls-1" d="m694.23,775.13c10-8,20-16,31-24,20-14,39-27,60-38,10-5,19-10,29-15l15-6c1-1,3-2,4-3,56-24,115-38,176-42,66-3,131,6,193,28,3,1,7,1,10,2,1,1,3,2,4,2,70,16,135,20,206,8,79-14,147-42,215-88,2-1,2-3,4-4,15-10,27-19,40-30"/><path class="cls-1" d="m701.23,890.13c17-14,35-26,53-40,3-2,7-3,10-5,20-14,40-24,61-35,11-5,23-10,34-15,118-47,249-52,369-8l15,3c1,0,3,2,4,2,91,22,179,18,267-7,29-9,56-20,84-33,20-9,38-19,57-31,24-16,46-31,67-48"/><path class="cls-1" d="m742.23,998.13c12-11,25-20,40-30,2-1,2-3,4-4,70-47,139-76,220-89,33-5,64-8,96-6,10,1,20,1,30,2,51,4,97,21,147,33,163,39,328-13,450-117"/><path class="cls-1" d="m748.23,1113.13c12-9,23-19,36-27,2-1,2-3,4-4,18-12,33-22,51-32,10-5,19-10,29-15,3-2,7-2,10-4,1-1,3-2,4-3,115-51,244-66,365-27,68,21,137,31,208,26,116-9,226-58,314-132"/><path class="cls-1" d="m789.23,1221.13c9-10,20-16,31-25,20-14,39-27,60-38,10-5,19-10,29-15,83-38,174-59,266-49h10c44,5,83,18,126,29,89,24,179,22,266-5,74-23,141-59,199-108"/><path class="cls-1" d="m796.23,1335.13c30-25,61-45,95-65,10-5,19-10,29-15,24-11,48-21,74-29,30-9,60-16,91-20,81-10,162-1,238,26,143,40,296,18,426-66,2-1,3-1,5-2,23-15,43-30,63-46"/></g><circle class="cls-4" cx="1227.23" cy="864.13" r="452.15"/><path class="cls-7" d="m1892.69,864.13c0,94.81-19.38,189.73-58.07,276.38-8.6,19.46-19.3,40.03-29.79,58.62,0,0-1.1-3.48-1.1-3.48,6.72,3.08,13.42,6.23,20.05,9.5,6.64,3.26,13.23,6.6,19.8,9.98l-3.48,1.02c5.29-9.7,10.82-19.26,15.7-29.17,10-19.26,19.53-40.1,27.57-60.23,50-122.9,64.85-260.24,40.58-390.79-33.56-185.26-146.51-353.59-302.73-457.99,0,0,4.84-2.58,4.84-2.58l.09,54.05-1.29-2.56c20.89,15.48,40.88,32.19,59.83,49.99,133.69,124.14,209.14,305.32,207.99,487.26h0Zm-.6,0c.47-155.31-58.26-308.58-158.57-426.62-33.3-39.3-71.1-74.78-112.45-105.5-.84-.62-1.29-1.59-1.29-2.56l.09-54.05c0-1.72,1.39-3.11,3.11-3.11,149.35,97.78,256.86,256.9,296.15,430.72,17.42,75.73,22.34,154.31,15.44,231.68-7.23,77.49-27.05,153.87-59.33,224.76-9.27,20.24-19.53,40.01-30.57,59.33-.7,1.22-2.24,1.66-3.48,1.02-13.05-6.8-26.21-13.38-39.52-19.66-1.31-.61-1.82-2.23-1.1-3.48,0,0,10.73-18.95,10.73-18.95,52.37-95.69,81.03-204.38,80.8-313.57h0Z"/><path class="cls-7" d="m1845.57,864.13c.02,55.12-7.1,110.42-21.06,163.74-14,53.37-35.56,105.09-63.38,152.76,0,0-1.28-3.67-1.28-3.67,6.41,2.51,15.83,6.31,22.16,8.86,0,0,21.82,9.64,21.82,9.64l-3.43,1.08c4.39-7.99,10.51-18.53,14.49-26.51,2.15-4.3,4.93-9.23,6.88-13.45,21.05-42.79,38.01-88.18,49.65-134.42,26.62-105.14,26.71-217.12-.68-322.11-30.32-117.13-93.95-225.22-180.64-309.5-21.45-20.82-44.99-40.82-69-58.59,0,0,5.02-2.53,5.02-2.53l.05,59.93-1.15-2.46c34.86,29.02,66.39,61.99,94.03,97.93,83.26,107.57,126.91,243.63,126.52,379.28h0Zm-.6,0c.17-112.72-32.86-224.72-92.33-320.27-35.37-57.32-80.05-108.85-131.73-152.03-.75-.63-1.14-1.54-1.14-2.45l.05-59.93c-.01-1.74,1.4-3.16,3.14-3.16.71,0,1.36.23,1.88.63,20.16,15.05,39.9,31.75,58.37,48.89,100.12,93.56,169.94,218.97,196.48,353.31,22.93,114.12,17.19,234.44-18.86,345.24-10,31.15-22.9,62.22-37.69,91.39-3.19,6-7.23,14.29-10.67,20.19,0,0-7.46,13.27-7.46,13.27-.68,1.22-2.2,1.68-3.43,1.08-7.92-3.6-24.78-11.18-32.56-14.14,0,0-10.96-4.46-10.96-4.46-1.33-.52-1.98-2.03-1.44-3.35,12.05-20.47,23.95-42.52,33.64-64.11,35.87-78.15,54.75-164.1,54.71-250.12h0Z"/><path class="cls-7" d="m1802.66,864.13c.06,99.52-24.53,199.33-73.52,286.16-3.33,5.76-6.76,11.46-10.13,17.2l-1.61-3.9c14.48,3.43,28.66,7.96,42.51,13.24l-3.27,1.14,6.75-11.77,3.37-5.89,3.18-5.99c3.28-5.98,9.41-18.02,12.35-24.16,6.82-13.78,13.35-29.19,19.17-43.45,4.72-12.09,9.72-25.97,13.75-38.34,3.91-12.39,7.96-26.57,11.18-39.19,57.42-227.17-25.84-468.43-205.47-617.34,0,0,5.23-2.45,5.23-2.45l.02,57.42-1-2.33c28.4,26.93,53.95,56.84,76.28,88.96,67.09,96.27,101.46,213.69,101.2,330.7h0Zm-.6,0c.25-116.69-38.28-232.25-105.51-327.27-22.23-31.7-47.72-61.07-75.79-87.73-.66-.63-1-1.48-1-2.33l.02-57.42c0-1.76,1.42-3.2,3.18-3.2.78,0,1.5.28,2.05.75,20.86,17.54,40.82,36.74,59.29,56.81,49.25,53.81,89.02,116.47,116.4,184.09,47.77,118.27,57.84,251,30.44,375.46-7.7,35.42-19.08,70.67-32.94,104.16-5.2,12.22-11.32,25.33-17.2,37.27-3.1,6.07-6.44,12.14-9.57,18.16-3.05,5.43-7.29,12.75-10.17,17.83-.65,1.14-2.03,1.61-3.22,1.16-13.73-5.16-27.65-9.81-41.86-13.23-1.4-.34-2.26-1.75-1.93-3.15.07-.28.17-.52.31-.76,0,0,10.16-16.97,10.16-16.97,24.64-42.92,44.4-88.74,57.35-136.57,13.29-47.78,19.93-97.48,19.97-147.07h0Z"/><path class="cls-7" d="m609.94,864.13c-.31,105.35,26.99,207.59,79.36,298.97,0,0-3.43-1.17-3.43-1.17,13.36-5.87,27.09-10.3,39.46-16.96l-1.27,4.34c-3.47-6.21-8.42-14.83-11.55-21.04-31.65-60.21-52.21-126.41-60.65-193.88-10.63-83.57-2.9-169.52,22.7-249.8,8.52-26.65,19.13-53.1,31.39-78.27,30.05-61.49,70.87-117.66,120.29-165.05,0,0-2.38,5.53-2.38,5.53l-.14-57.42,12.75,5.96c-38.49,32.1-73.11,68.88-103.06,109.09-6.47,8.72-13.31,18.31-19.32,27.32-65.7,97.67-104.04,214.23-104.15,332.38h0Zm-1.49,0c-1.3-184.58,74.87-362.39,218.07-480.71,3.29-2.76,8.19-2.32,10.94.97,1.22,1.46,1.81,3.23,1.8,4.99l-.14,57.42c0,2.17-.92,4.15-2.38,5.53-17.06,16.04-33.36,33.45-48.45,51.39-58.02,69.43-98.98,152.98-118.21,241.41-15.86,73.17-17.34,149.59-4.05,223.29,11,62.24,32.92,122.44,63.53,177.83.83,1.5.29,3.4-1.22,4.23-13.24,6.78-27.23,10.95-40.4,16.44-1.27.53-2.73-.01-3.38-1.2-15.63-28.81-28.9-58.93-39.77-89.82-1.61-4.6-3.98-11.84-5.51-16.28-1.69-5.42-4.06-13.42-5.71-18.79-2.63-9.71-5.77-21.07-7.98-30.88-2.08-8.17-3.91-18.11-5.65-26.38-.98-5.58-2.41-13.81-3.4-19.32-.19-1.13-1.52-10.69-1.75-12.14-4.12-28.46-6.11-59.15-6.35-87.98h0Z"/><path class="cls-7" d="m518.67,864.13c-.55,115.42,28.81,230.68,84.24,331.88,0,0-2.61-1.2-2.61-1.2,7.17-1.66,14.22-3.9,21.22-6.37,5.91-2.12,14.88-5.56,20.84-7.96,0,0-1.41,3.93-1.41,3.93-9.61-17.48-18.62-35.31-26.78-53.54-58.97-132.62-72.08-284.49-38.41-425.63,12.84-53.49,32.26-105.69,57.87-154.39,9.09-17.45,19.52-35.49,30.22-51.99,43.4-67.45,98.8-127.3,163.16-175.48l-3.05,6.06-.16-54.05,12.01,6.39c-23.68,16.07-46.47,33.47-68.1,52.22-152.4,131.32-249.35,327.72-249.03,530.12h0Zm-1.49,0c-1.82-236.97,111.51-463.32,310.05-595.15,4.95-3.29,12.05.15,11.97,6.42,0,.01-.17,54.06-.16,54.07,0,2.46-1.23,4.66-3.05,6.04-15.79,11.7-31.08,24.04-45.89,36.96-29.47,25.98-56.84,54.57-81.18,85.39-163.2,201.71-187.44,496.61-63.06,723.87.77,1.33.28,3.06-1.08,3.78-14.01,5.31-28.77,10.83-43.49,13.95-1.05.22-2.09-.3-2.57-1.21-13.38-25.71-25.16-52.23-35.29-79.35-30.4-81.29-45.99-168-46.25-254.76h0Z"/><path class="cls-7" d="m562.82,864.13c.13,28.7,1.8,59.65,5.73,88.01.91,5.79,2.05,14.77,3.09,20.53.63,3.63,2.11,11.7,2.74,15.33,1.27,7.06,3.38,15.81,4.82,22.85,1.42,5.83,3.57,14.33,5,20.15,1.6,5.8,4.01,14.19,5.65,19.97,13.87,45.4,32.49,89.52,55.76,130.88,0,0-3.16-1.14-3.16-1.14,12.49-5.14,30.74-13.43,43.3-19.05,0,0-1.43,4.2-1.43,4.2-24.23-42.85-43.5-88.62-56.7-136.09-25.55-90.67-29.88-187.13-13.19-279.9,25.2-141.87,101.92-273.52,212.21-366.31,0,0-2.72,5.81-2.72,5.81l-.18-59.93,12.35,6.22c-46.19,34.35-88,74.58-124.14,119.38-93.31,114.73-149.16,260.53-149.14,409.08h0Zm-1.49,0c-.85-149.42,46.49-300.12,139.31-418.08,36.3-46.34,78.9-87.82,126.25-122.82,3.43-2.56,8.3-1.84,10.84,1.6,1.03,1.39,1.52,3.01,1.51,4.61,0,0-.18,59.94-.18,59.96,0,2.31-1.08,4.4-2.72,5.78-33.84,28.1-64.86,59.68-92.12,94.26-60.04,76.26-101.42,166.89-119.43,262.36-26.82,139.12-3.43,286.85,64.75,411.16.81,1.45.28,3.29-1.18,4.08-12.77,5.4-31.16,13.48-44.02,18.39-1.2.49-2.57-.01-3.16-1.14-22.11-41.34-39.7-85.18-52.73-130.18-1.96-6.72-4.31-15.86-6.15-22.6-1.41-5.85-3.4-14.47-4.78-20.26-1.22-5.88-2.94-14.57-4.14-20.4-1.05-5.91-2.54-14.65-3.57-20.5-5.36-34.58-8.3-71.15-8.47-106.21h0Z"/><path class="cls-6" d="m324.61,1239.58c-40.27,0-74.53-11.2-99.07-32.4-27.26-23.54-41.99-57.77-43.79-101.74v-.12c-2.39-69.89,43.1-135.7,87.1-199.35,30.77-44.52,59.84-86.57,70.63-126.59,7.53-28.27,5.1-52.43-6.84-67.97-9.09-11.83-23.52-18.08-41.72-18.08-.32,0-.65,0-.98,0-31.12.75-60.85,12.09-83.74,31.95-20.97,18.2-33.8,41.61-35.19,64.22v.12c-1.92,28.06,9.29,44.9,34.27,51.5l28.08,7.42-18.59,22.31c-22.25,26.7-52.91,41.4-86.34,41.4-31.38,0-61.29-13.16-82.06-36.1-20.89-23.08-30.56-54.15-27.23-87.48,5.43-55.12,34.63-105.38,82.23-141.5,23.57-17.88,50.89-31.81,81.21-41.38,31.28-9.88,65.06-14.89,100.4-14.89,1.86,0,3.73.01,5.6.04,55.12.61,99.81,15.7,132.74,44.86,30.7,27.18,49.37,65.79,54,111.65,4.33,42.24-1.47,85.15-17.74,131.15-13.76,38.92-32.6,73.48-49.23,103.98-15.11,27.71-28.15,51.64-32.58,70.21-2.02,8.6-1.64,15.27,1.09,18.71,2.9,3.66,10.17,5.75,19.96,5.75,2.68,0,5.57-.15,8.6-.46,47.48-4.56,96.71-45.39,135.15-112.05,61.71-107,98.36-287.31,32.97-430.33l-6.51-14.24,12.97-8.77c19.92-13.48,42.85-20.9,64.54-20.9,18.48,0,35.49,5.43,49.18,15.7,15.12,11.35,25.75,27.93,31.58,49.27,18.94,68.45,15.04,159.95-11.01,257.59-25.49,95.55-69.83,189.03-124.86,263.22-36.15,48.75-75.5,87.48-116.96,115.12-46.09,30.73-93.62,46.91-141.27,48.07-2.14.06-4.38.1-6.58.1h-.01Z"/><path class="cls-5" d="m644.55,509c27.61,0,52.95,14.88,62.91,51.35,60.6,218.97-132.51,654.67-376.71,660.64-2.06.06-4.1.09-6.14.09-69.42,0-121.07-35.61-124.38-116.39-3.77-110.48,129.61-218.53,157.11-320.49,17.29-64.93-12.59-109.37-66.42-109.37-.44,0-.88,0-1.33,0-75.42,1.76-133.61,57.66-137.05,113.53-2.63,38.49,16.04,62.2,48.02,70.65-19.98,23.98-46.38,34.75-72.13,34.75-49.8,0-97.17-40.3-90.88-103.25,9.99-101.46,108.22-181.11,245.43-181.11,1.76,0,3.54.01,5.32.04,105.3,1.17,160.49,59.44,168.61,139.87,13.49,131.65-83.75,234.69-99.13,299.19-6.94,29.6,6.66,47.25,39.04,47.25,3.29,0,6.77-.18,10.45-.55,157.39-15.11,283.35-349.18,183.09-568.48,16.5-11.16,35.84-17.73,54.18-17.73m0-37c-25.35,0-51.96,8.55-74.91,24.08l-25.94,17.55,13.02,28.48c59.87,130.96,29.14,307.1-32.17,413.4-35.41,61.4-79.45,98.9-120.81,102.87h-.09s-.09.02-.09.02c-2.41.24-4.68.37-6.74.37-1.3,0-2.42-.05-3.37-.12.09-.5.21-1.03.34-1.62,3.88-16.17,16.96-40.17,30.81-65.58,16.96-31.1,36.17-66.35,50.42-106.66,17.19-48.62,23.31-94.15,18.7-139.18h0c-5.11-50.57-25.9-93.33-60.15-123.64-17.94-15.88-39.36-28.16-63.66-36.48-24.27-8.31-51.57-12.69-81.12-13.03-1.92-.03-3.88-.04-5.81-.04-37.24,0-72.89,5.3-105.98,15.75-32.34,10.22-61.55,25.11-86.82,44.28C38.46,671.7,6.69,726.53.74,786.84h0c-3.86,38.6,7.48,74.73,31.92,101.73,24.27,26.81,59.18,42.19,95.78,42.19,18.72,0,36.81-3.97,53.74-11.79,17.89-8.27,33.64-20.47,46.81-36.27l37.19-44.63-56.17-14.83c-7.67-2.03-13.13-5.27-16.21-9.64-4.43-6.28-4.8-15.82-4.33-22.72v-.12s.02-.12.02-.12c1.09-17.69,11.61-36.42,28.85-51.39,19.61-17.02,45.15-26.75,71.93-27.42.22,0,.44,0,.66,0,12.41,0,21.51,3.65,27.05,10.85,8.23,10.71,9.55,29.63,3.63,51.92-9.97,36.93-38.15,77.69-67.98,120.85-21.71,31.41-44.17,63.9-61.22,97.53-20.81,41.03-30.34,77.98-29.15,112.96v.13s0,.13,0,.13c.99,24.23,5.74,46.27,14.1,65.51,8.46,19.46,20.6,36.11,36.08,49.47,27.95,24.14,66.39,36.9,111.16,36.9,2.35,0,4.76-.04,7.15-.1,51.18-1.27,101.97-18.49,150.98-51.18,43.23-28.83,84.13-69.03,121.55-119.49,56.38-76.02,101.8-171.72,127.87-269.48,12.97-48.61,20.66-95.75,22.86-140.11,2.35-47.32-1.65-90.11-11.9-127.17-6.84-25.02-20.09-45.48-38.31-59.15-16.92-12.7-37.76-19.41-60.28-19.41h0Z"/><path class="cls-6" d="m812.77,748.47c-4.78,0-9.69-.55-15.45-1.73-18.42-3.55-33.07-13.09-42.38-27.59-10.78-16.79-13.36-38.46-7.44-62.67,7.6-32.58,27.66-54.86,55.05-61.13,4.65-1.08,9.36-1.62,14.32-1.62,4.24,0,8.53.39,13.14,1.2l.42.08c18.07,3.59,33.13,13.63,42.39,28.28,10.63,16.81,13.25,38.87,7.4,62.12-7.91,32.57-28.44,55.63-54.93,61.7l-.13.03c-4,.89-8.17,1.34-12.38,1.34h0Z"/><path class="cls-5" d="m816.87,612.23c3.17,0,6.46.31,9.95.92,29.51,5.86,44.25,32.92,35.43,67.82-6.28,25.96-21.47,43.61-41.1,48.1-2.86.63-5.64.9-8.38.9-3.99,0-7.9-.56-11.84-1.38-30.22-5.77-44.17-32.21-35.43-67.82,6.19-26.67,21.55-42.9,41.19-47.39,3.32-.77,6.68-1.15,10.19-1.15m0-37c-6.28,0-12.51.71-18.53,2.1-17.34,3.99-32.88,13.27-44.95,26.85-11.4,12.82-19.43,28.97-23.88,48-3.34,13.73-4.35,27.03-3,39.54,1.5,13.87,5.83,26.47,12.87,37.43,11.92,18.56,31.21,31.25,54.33,35.74,6.97,1.42,13.03,2.09,19.06,2.09,5.56,0,11.07-.6,16.39-1.77l.13-.03.13-.03c33.46-7.66,59.15-35.8,68.76-75.29,7.08-28.19,3.63-55.33-9.72-76.45-12-18.98-31.33-31.96-54.43-36.54l-.41-.08-.42-.07c-5.67-.99-11.01-1.47-16.32-1.47h0Z"/><path class="cls-6" d="m1369.76,1293.67c-21,0-40.67-5.45-56.89-15.75-18.12-11.51-30.99-28.57-37.24-49.33-9.88-32.67-4.54-69.11,14.67-99.97,20.86-33.51,55.16-55.74,96.6-62.59,14.47-2.42,29.28-3.65,43.97-3.65,36.28,0,69.89,7.43,101.54,17.03-4.34-20.41-5.61-42.64-3.84-65.35-3.58,3.43-7.22,6.72-10.88,9.84-24.77,21.13-49.52,33.69-71.57,36.31-2.83.34-5.66.51-8.4.51-18.69,0-34.74-7.74-46.42-22.38-5.92-7.43-10.62-16.52-14.05-27.2-11.17,13.3-22.66,24.83-34.37,34.48-25.27,20.83-51.71,33-78.58,36.2-4.41.52-8.76.79-12.92.79-31.18,0-54.76-14.78-67.54-40.98-31.01,36.73-63.1,57.25-95.69,61.12-3.6.43-7.2.64-10.7.64-26.25,0-48.87-11.93-63.67-33.6-21.75-31.85-23.42-79.85-4.47-128.42l40.32-103.57c.52-1.3.9-2.46,1.18-3.5-14.35,5.71-27.95,25.68-38,56.23-15.66,47.57-22.47,119.48-19.71,207.95l.59,18.89-18.9.19c-.98,0-1.95.01-2.92.01-59.44,0-90.92-18.61-107.59-38.59-28.65,36.1-62.39,59.34-98.78,67.77-8.11,1.92-16.05,2.9-23.53,2.9-23.01,0-42.54-9.18-56.49-26.56-23.06-28.74-26.22-73.9-19.11-105.92l.13-.61,72.82-248.16,12.13-1.44c7.58-.9,14.82-1.36,21.53-1.36,49.12,0,62.96,24,66.84,38.41,8.42,29.98.45,69.76-7.25,108.23-3.51,17.55-6.83,34.12-8.06,47.62-1.23,13.55.18,18.84.87,20.52.56.08,1.29.16,2.19.16,11.61,0,24.54-11.55,35.46-31.68l.44-.81,69.38-204.02,14.17-.08c20.48,0,57.31,3.61,75.24,27.67,25.54-26.42,64.44-57.23,106.84-57.23,7.39,0,14.68.95,21.69,2.83,18.61,5.09,31.86,15.28,39.47,30.3,17.86,35.24-2.08,87.38-19.68,133.38-6.18,16.17-12.02,31.43-15.51,44.08-3.11,11.28-3.29,16.89-3.08,19.32.46.04,1.04.07,1.74.07,1.17,0,2.48-.08,3.92-.25,2.84-.75,15.59-7.65,31.84-29.43l75.15-225.82c-89.57.3-238.68,4.51-310.36,27.5l-14.52,4.66-7.34-13.36c-11.03-20.08-10.02-46.84,2.7-71.58,15.47-30.08,45.2-50.48,79.53-54.56,6.39-.76,13.28-1.15,20.45-1.15,36.11,0,78.13,9.63,122.61,19.82,41.96,9.62,85.21,19.53,128.93,23.1l47.99-130.59,12.53-.35c1.9-.05,3.79-.08,5.61-.08,21.1,0,37.44,3.42,49.93,10.47,14.04,7.92,22.76,20.31,25.22,35.85,3.78,21.33-4.29,55.62-11.81,80.87,45.82-5.85,107.41-20.23,162.66-43.26,36.56-15.24,66.07-32.48,87.71-51.23,23.47-20.34,37.06-42.07,40.41-64.59,2.7-17.91-1.59-32.29-7.03-38.62-1.17-1.36-2.92-2.98-4.65-2.98-.4,0-.86.07-1.36.21l-53.12,14.38,33.65-43.55c15.63-20.22,41.72-31.82,71.58-31.82,45.22,0,97.56,27.58,112.53,89.18,6.47,26.15,3.15,55.51-9.37,82.61-12.81,27.72-34.13,51.51-61.66,68.79-38.02,23.87-102.35,46.07-181.16,62.51-9.5,1.98-19.11,3.86-28.8,5.62,17.62,1.96,33.85,9.41,47.38,21.83,4.25,3.9,8.2,8.27,11.84,13.05l17.81-43.02,11.99-.33c1.87-.05,3.74-.08,5.57-.08,65.04,0,77.25,31.94,79.47,45.87,4.57,27.02-10.7,71.2-30.01,127.11-14.12,40.88-30.14,87.22-37.18,126.3-4.39,25.13-4.75,45.34-1.04,59.97,3.53,13.93,10.62,22.56,22.28,27.14,5.15,1.82,11.07,2.83,16.69,2.83,1.82,0,3.61-.1,5.33-.31,8.92-1.06,15.03-4.86,18.69-11.62l33.42,15.73c-10.91,27.04-26.67,51.54-45.58,71.5.41-.06.83-.11,1.24-.17,39.87-5.93,76.97-31.7,110.26-76.6,12.83-17.3,23.94-35.87,33.48-54.41-22.46,17.54-42.61,25-64.66,25.52h-1c-20.34,0-39.78-8.38-54.74-23.61-13.7-13.95-22.51-32.29-24.81-51.63-6.67-56.15,12.12-129.95,50.28-197.43,18-31.83,39-59.46,60.75-79.92,25.07-23.6,50.12-37.03,74.46-39.92,3.73-.44,7.46-.67,11.1-.67,28.07,0,52.39,12.99,69.47,36.07,19.84-31.75,48.93-49.81,82.26-49.81,18.04,0,36.92,5.22,56.14,15.51l21.15,11.32-16.33,17.58c-25.12,27.05-52.71,105.46-77.68,220.79-15.97,74.01-37.47,158.64-75.79,225.06-39.23,67.99-91.76,109.41-160.58,126.63-20.49,5.08-41.65,7.55-64.73,7.55h-.03c-55.94,0-111.86-15.07-161.2-28.37-40.5-10.91-78.75-21.22-109.54-21.22-21.71,0-37.59,4.98-49.97,15.67l-.16.14c-5.52,4.66-7.63,9.3-6.27,13.79,1.36,4.46,5.91,8.48,10.16,8.95l35.3,3.93-23.45,26.67c-21.77,24.75-55.23,39.53-89.52,39.53Zm-25.82-371.73c.38,0,.8-.03,1.26-.07,3.27-.83,17.84-8.65,35.42-33.5,13.02-49.9,37.73-101.72,68.08-142.69,25.87-34.92,53.98-59.38,81.34-71.22-46.18,6.56-92.43,10.5-134.22,11.32-21.94,70.85-37.43,123.58-46.38,164.31-4.97,22.59-7.57,39.94-7.96,53.03-.37,12.41,1.43,17.32,2.19,18.82.08,0,.17,0,.26,0Zm261.35-144.89c-.6,0-1.25.04-1.93.12-17.26,2.05-40.23,27.62-55.86,62.19-6.52,14.41-11.09,29.08-12.89,41.31-1.63,11.11-.5,16.55.21,18.66.07,0,.14-.01.21-.02,2.1-.25,3.42-.42,4.75-.77,4.74-2.25,16.38-8.69,23.25-20.09l42.27-101.39h-.03Zm361.27-43c-.31,0-.63.02-.96.06-17.26,2.05-40.23,27.62-55.86,62.19-6.52,14.41-11.09,29.08-12.88,41.31-1.63,11.11-.5,16.55.21,18.66.07,0,.14-.01.21-.02,11.01-1.31,25.35-9.22,38.93-21.38l34.47-99.18c-1-.91-2.34-1.62-4.11-1.62Z"/><path class="cls-5" d="m1745.98,376.54c38.84,0,82.16,24.03,94.56,75.05,11.09,44.78-11.96,99.38-62.9,131.37-76.41,47.98-258.68,84.05-395.49,84.47-52.78,169.71-81.35,273.01-38.21,273.01,1.16,0,2.38-.08,3.64-.23,9.22-1.1,29.31-13.54,50.13-44.02,24.71-98.45,97.03-203.25,161.58-210.92,2.98-.35,5.89-.53,8.74-.53,35.11,0,59.69,26.28,70.48,60.98l28.54-68.94c1.72-.05,3.4-.07,5.05-.07,36.45,0,58.28,11.43,61.22,30.37,7.03,40.94-51.08,158.06-67.15,247.12-9.01,51.49-4.02,93.4,32.97,107.73,6.92,2.49,14.98,3.99,23.17,3.99,2.5,0,5.02-.14,7.51-.44,13.5-1.6,25.69-8.1,32.78-21.18-17.76,44.02-48.61,78.69-81.77,97.13,8.82,1.01,17.76,1.57,26.86,1.57,9.92,0,20.03-.66,30.37-2.14,98.39-14.58,163.06-131.03,195.45-234.28-59.46,75.5-89.27,91.29-119.44,91.99-.19,0-.38,0-.57,0-32.81,0-57.57-28.57-61.18-58.93-13.17-110.8,84.77-286.68,169.3-296.72,3.05-.36,6.02-.54,8.92-.54,35,0,59.44,25.64,70.21,60.28,13.83-43.28,42.25-74.02,81.52-74.02,14.4,0,30.27,4.14,47.41,13.31-33.85,36.44-62.68,139.27-82.21,229.47-36.69,170.03-85.67,303.35-222.78,337.66-19.93,4.95-40.08,7-60.27,7-99.14,0-198.56-49.59-270.74-49.59-24.04,0-45.07,5.5-62.06,20.17-26.84,22.64-8.13,52.83,13.77,55.27-19.35,22.01-48.09,33.25-75.63,33.25-33.86,0-65.91-17.01-76.42-51.91-16.61-54.93,18.86-126.13,96.57-138.97,14.11-2.36,27.72-3.4,40.96-3.4,47.16,0,89.35,13.26,130.55,27.53-21.13-44.27-20.63-112.52,5.32-172.65-36.03,60.47-85.87,101.69-122.81,106.08-2.13.25-4.2.38-6.22.38-26.27,0-43.08-21.27-47.63-59.53-.71-5.97-1.08-12.15-1.16-18.47-34.4,52.56-77.5,93.37-126.81,99.23-3.76.45-7.33.66-10.74.66-40.99,0-56.73-31.18-59.35-64.1-30.94,45.72-66.92,79.72-106.06,84.37-2.91.35-5.75.52-8.52.52-53.33,0-79.77-62.83-50.9-136.79l40.28-103.47c6.81-17.13,2.51-30.38-9.95-30.38-.73,0-1.5.05-2.29.14-45.46,5.4-86.14,87.31-79.97,284.66-.92,0-1.83.01-2.73.01-63.5,0-96.2-22.58-105.58-54.86-27.47,43.23-62.89,74.76-104.97,84.52-6.99,1.65-13.42,2.42-19.35,2.42-56.5,0-66.45-69.8-57.54-109.97l69.21-235.84c6.93-.82,13.38-1.23,19.35-1.23,27.66,0,44.72,8.72,49,24.8,16.16,57.15-41.61,177.1-2.74,189.05,1.98.56,4.82,1.09,8.32,1.09,12.36,0,32.84-6.56,51.72-41.36l.38.19,66.45-195.42c.3,0,.6,0,.9,0,37.86,0,76.2,13.46,63.56,51.41,18.99-25.58,68.21-80.97,118.52-80.97,5.63,0,11.28.69,16.9,2.2,100.17,27.42-68.04,227.79,7.74,227.79,1.94,0,4.05-.13,6.33-.4,8.72-1.04,26.54-12.16,46.07-39.17l84.17-252.91c-4.87-.02-9.81-.03-14.84-.03-109.64,0-255.16,5.42-326.81,28.4-17.46-31.78,9.25-91.86,68.2-98.87,5.85-.7,11.95-1.02,18.27-1.02,69.63,0,166.48,38.9,264.14,43.8l48.44-131.81c1.74-.05,3.44-.07,5.1-.07,36.06,0,53.89,11.27,56.91,30.88,4.12,22.56-9.65,70.3-19.94,98.89,93.01-5.29,318.26-61.6,335.46-177.46,5.14-34.07-9.41-62.82-29.98-62.82-2.01,0-4.08.28-6.2.85,12.53-16.22,33.95-24.63,56.94-24.63m150.31,498.27c1.01,0,2.07-.06,3.17-.2,17.76-2.11,37.17-14.5,52.7-29.31l38.64-111.2c-3.21-10.23-12.29-18.54-24.25-18.54-1.03,0-2.08.06-3.15.19-59.86,7.12-116.34,159.06-67.12,159.06m-362.24,43.06c1.01,0,2.07-.06,3.17-.2,2.84-.34,5.68-.68,9.15-1.81,10.94-4.9,24.93-14.49,33.27-29.17l47.08-112.92c-3.04-9.3-10.28-15.22-21.44-15.22-1.32,0-2.69.08-4.12.25-59.86,7.12-116.34,159.06-67.12,159.06m211.93-578.33h0c-35.64,0-67.06,14.22-86.22,39.01l-67.3,87.09,95.72-25.9c1.01,4.23,1.58,10.39.45,17.89v.04s-.01.04-.01.04c-5.38,36.24-46.91,72.28-116.94,101.47-42.85,17.87-90.54,30.46-130.41,37.66,6.05-26.4,7.61-45.9,4.92-61.27-3.37-20.93-15.57-38.28-34.38-48.89-15.34-8.65-34.65-12.86-59.02-12.86-1.99,0-4.05.03-6.12.09l-25.06.69-8.65,23.53-38.73,105.4c-37.8-4.25-75.59-12.91-112.37-21.34-45.53-10.43-88.54-20.29-126.74-20.29-7.9,0-15.52.43-22.64,1.27-21.36,2.54-40.78,10.07-57.71,22.39-15.1,10.98-27.58,25.54-36.09,42.08-15.54,30.22-16.47,63.48-2.47,88.96l4.95,9.01h-1.59s-8.48,24.95-8.48,24.95l-64.63,190.06c-.25.46-.51.91-.76,1.36,1.42-8.15,3.19-16.95,5.01-26.08,8.13-40.59,16.53-82.55,6.94-116.8-4.32-15.88-21.15-51.97-84.67-51.97-7.44,0-15.41.5-23.72,1.49l-24.26,2.88-6.88,23.44-69.21,235.84-.35,1.19-.27,1.21c-4.1,18.49-4.86,39.58-2.14,59.38,3.38,24.56,11.98,46.04,24.89,62.12,8.38,10.45,18.49,18.63,30.05,24.31,12.37,6.09,26.12,9.17,40.87,9.17,8.88,0,18.21-1.14,27.75-3.39,25.94-6.02,50.54-18.54,73.14-37.22,7.83-6.47,15.41-13.69,22.72-21.6,4.67,3.68,9.72,7.05,15.13,10.08,23.75,13.3,54.42,20.04,91.16,20.04,1.03,0,2.06,0,3.1-.02l37.8-.38-1.18-37.78c-.02-.73-.04-1.45-.07-2.17,6.14,5.93,12.98,10.94,20.48,14.97,13.78,7.43,29.07,11.19,45.43,11.19,4.23,0,8.57-.26,12.89-.77,25.77-3.06,51.15-14.87,75.42-35.11,5.33-4.44,10.64-9.32,15.92-14.63,12.79,14.4,34.63,29.71,69.7,29.71,4.89,0,9.97-.31,15.1-.92,9.12-1.08,18.18-3.06,27.13-5.92-7.11,7.44-13.48,15.65-19.02,24.56-10.64,17.1-17.81,36.5-20.72,56.11-2.97,19.99-1.57,40.39,4.06,59.01,7.53,25.02,23.1,45.64,45.02,59.56,19.19,12.19,42.29,18.64,66.81,18.64,18.84,0,38-3.92,55.39-11.33,18.52-7.9,35.13-19.82,48.02-34.48l46.91-53.35-51.61-5.75c5.98-2.19,14.05-3.78,25.2-3.78,28.34,0,65.44,10,104.72,20.58,50.45,13.6,107.64,29.01,166.03,29.01,24.62,0,47.25-2.65,69.18-8.09h.03s.03-.02.03-.02c38.31-9.58,72.6-26.6,101.92-50.57,27.09-22.14,50.05-49.87,70.19-84.77,17.33-30.03,32.34-65.1,45.9-107.21,11.11-34.51,21.27-73.66,31.96-123.2,11.12-51.35,22.78-95.42,34.66-130.97,18.02-53.93,31.85-73.97,38.49-81.12l32.65-35.15-42.3-22.65c-21.93-11.74-43.76-17.7-64.87-17.7-32.65,0-61.71,14.07-83.9,39.4-19.06-16.79-42.48-25.66-67.83-25.66-4.37,0-8.84.27-13.29.8-28.35,3.37-56.93,18.45-84.95,44.82-22.54,21.21-44.23,49.51-62.84,81.95,1.8-12.45,1.9-22.77.38-31.82-3.39-21.24-16.85-38.77-37.92-49.38-2.55-1.29-5.22-2.47-7.99-3.55,29.7-10.56,54.35-21.94,73.39-33.9,30.58-19.2,54.3-45.72,68.62-76.7,14.26-30.86,18-64.51,10.55-94.76-7.86-32.33-25.74-59.28-51.72-77.94-22.74-16.35-50.72-25.35-78.79-25.35h0Zm-336.4,364.37c17.14-.59,34.89-1.66,53-3.19-9.83,10.03-19.43,21.37-28.75,33.94-31.02,41.87-56.4,94.59-70.22,145.65-.5.68-.99,1.34-1.48,1.98,1.72-11.32,4.43-24.73,8.22-40.64,8.59-36.08,21.93-81.59,39.23-137.75h0Zm-231.19,5.02c19.35-.64,39.56-1.09,60.54-1.33l-23.18,69.65c-.37-14.36-3.36-26.97-8.98-38.06-4.86-9.59-13.45-21.32-28.38-30.26h0Zm-198.1,19.62c21.36-4.9,48.79-9.02,81.31-12.29-8.91,5.27-17.87,11.55-26.84,18.84-4.37,3.55-8.56,7.2-12.53,10.85-11.18-8.24-25.36-14.12-41.94-17.4h0Zm938.19,97.06c.4-1.35.83-2.74,1.3-4.19,2.56-7.84,5.87-15.84,9.68-23.52l-9.1,26.19c-.63.52-1.26,1.02-1.88,1.51h0Zm-215.88,135.1c2.68-14.85,6.75-30.93,11.56-47.43-.22,10.63.25,20.89,1.42,30.74,2.78,23.39,13.43,45.56,29.98,62.41,18.46,18.8,42.59,29.15,67.94,29.15.32,0,.63,0,.94,0h.24s.24,0,.24,0c5.65-.13,11.16-.65,16.58-1.57-.23.31-.46.63-.69.94-14.22,19.17-29.05,34.49-44.38,45.87,3.84-7.34,7.35-14.9,10.48-22.65l-66.85-31.47c-.33.61-.88,1.62-4.61,2.06-1,.12-2.06.18-3.14.18-3.42,0-7.13-.61-10.24-1.67-4.1-1.65-8.25-4.3-10.8-14.35-2.1-8.3-3.58-24.09,1.33-52.21h0Zm-339.35,91.77c3.07-2.77,6.11-5.67,9.14-8.67,1.25,1.87,2.55,3.67,3.91,5.41-4.43.93-8.78,2.02-13.04,3.27h0Zm145.73,1.34c.38-.26.75-.51,1.13-.77.03.36.05.71.08,1.07-.4-.1-.81-.2-1.22-.3h0Z"/><path class="cls-6" d="m2210.41,969.02c-29.58,0-55.14-9.38-73.91-27.12-19.29-18.23-31.08-44.34-35.03-77.61-6.77-56.98,10.71-123.07,47.96-181.3,37.67-58.89,88.43-98.53,139.27-108.75l.23-.04c8.05-1.51,15.96-2.28,23.51-2.28,25.1,0,46.71,8.37,62.49,24.2,15.48,15.53,24.52,37.53,26.14,63.62v.14c1.74,31.79-13.48,64.18-42.84,91.21-26.63,24.52-60.99,40.85-94.28,44.81-3.54.42-7.21.7-10.95.83,1.34,4.2,3.39,8.14,6.46,11.29,5.66,5.81,14.54,8.76,26.39,8.76,2,0,4.1-.09,6.24-.26,39.84-4.16,73.28-22.78,87.3-48.61l9.49-17.47,53.08,33.97-8.22,15.13c-28.24,51.97-61.31,92.99-98.28,121.92-33.77,26.42-69.61,42.04-106.52,46.43-6.31.75-12.54,1.13-18.51,1.13h0Zm104.9-280.7c-1.43,0-3.03.15-4.77.45l-.28.05-.28.04c-15.18,2.15-32.1,16.73-43.34,35.39,30.07-6.23,43.1-20.18,46.92-25.2,3.86-5.07,4.73-8.79,4.81-10.43-.63-.16-1.63-.31-3.05-.31Z"/><path class="cls-5" d="m2312.43,590.41c40.88,0,67.44,26.54,70.17,70.47,3.04,55.82-61.17,109.55-120.83,116.65-4.61.55-9.25.79-13.85.79-5.33,0-10.6-.33-15.69-.88-.97,37.02,18.64,57.85,53.63,57.85,2.57,0,5.22-.11,7.95-.34,46.25-4.78,84.71-26.64,101.85-58.21l21.83,13.97c-57.33,105.5-128.23,151.38-190.73,158.81-5.61.67-11.06,1-16.33,1-49.48,0-83.56-29.37-90.58-88.41-13.17-110.8,76.13-250.35,172.51-269.73,7.02-1.32,13.73-1.96,20.09-1.96m-74.61,155.39c100.08-1.66,121.11-75.98,77.49-75.98-2.44,0-5.08.23-7.92.72-31.88,4.51-61.38,41.15-69.57,75.26m74.61-192.39s0,0,0,0c-8.69,0-17.75.87-26.93,2.6l-.23.04-.23.05c-55.73,11.21-110.85,53.82-151.21,116.92-18.51,28.93-32.97,61.11-41.82,93.04-9.69,34.97-12.69,68.75-8.93,100.41,4.48,37.69,18.17,67.6,40.7,88.88,22.27,21.05,52.23,32.17,86.62,32.17,6.71,0,13.67-.42,20.7-1.26,19.58-2.33,39.2-7.66,58.31-15.84,19.76-8.46,39.08-20.03,57.43-34.39,38.98-30.49,73.68-73.44,103.14-127.66l16.45-30.26-29.01-18.57-21.83-13.97-18.25-11.68c3.4-5.09,6.44-10.31,9.11-15.64,9.77-19.46,14.17-39.44,13.09-59.39v-.14s-.02-.14-.02-.14c-1.9-30.66-12.8-56.78-31.5-75.54-19.33-19.39-45.47-29.63-75.59-29.64h0Z"/><path class="cls-6" d="m883.15,1513.99c-5.77-2.66-11.36-5.69-16.59-9.01-37.33-23.76-45.72-52.19-26.53-71.72,15.67-15.91,46.49-18.27,74.71-23.61,19.87-3.59,37.92-8.21,49.03-16.43,7.92-5.9,11.48-12.86,10.44-19.35-.81-5.02-4.37-9.57-10.28-13.31-2.36-1.47-4.89-2.83-7.47-4.01-17.75-8.06-39-7.97-49.25,1.41-6.81,6.24-7.09,13.07-.32,20.83,2.36,2.69,4.74,5.37,7.15,8.03-3.41.32-6.84.6-10.28.85-10.09.74-20.5-1.81-29.74-7.34-12.48-7.44-21.31-19.53-23.36-31.56-2.1-12.19,2.69-22.45,12.61-29.26,25.63-17.18,62.16-14.47,97.27,2.41,7.33,3.55,14.6,7.74,21.71,12.48,30.66,20.22,44.49,46.61,32.68,75.11-11.59,27.74-40.53,41.3-65.5,50.08-11.01,3.99-20.78,7.1-26.26,10.78-1.54,1.05-4.07,3.14-3.4,5.35.67,2.18,4.42,5.14,10.33,7.99,1.35.66,2.72,1.26,4.1,1.81,21.3,8.56,50.39,6.05,76.76-7.72,40.58-20.43,71.52-67.28,68.01-114.18-.09-1.57-.18-3.15-.26-4.72,1.65-.29,3.29-.58,4.93-.89,5.52-1.02,11.16-1.12,16.42-.26,15.96,2.6,26.12,13.53,25.94,29-.07,40.42-34.99,97.03-99.75,125.33-47.65,21.18-101.73,21.17-143.11,1.92,0,0,0,0,0,0Z"/><path class="cls-5" d="m1099.19,1363.22c11.38,1.88,20.99,9.02,20.62,23.26-.79,33.55-26.37,78.66-72.38,106.86-44.79,28.58-110.02,40.24-161.95,15.6-5.25-2.41-10.34-5.16-15.21-8.25-30.07-18.95-42.09-43.39-23.74-62.61,24.89-24.23,94.47-17.64,122.07-40.27,17.8-13.81,15.35-31.26-1.41-41.8-2.76-1.71-5.57-3.21-8.4-4.51-21.18-9.64-44.79-8.65-56.68,1.97-9.25,8.25-8.85,18.41-.3,28.25-9.03.61-17.7-1.84-24.92-6.17-20.47-12.21-28.02-38.12-9.08-50.98,22.95-15.81,56.95-13.74,90.34,2.34,6.91,3.34,13.86,7.33,20.84,11.99,30.72,20.13,39.91,44.38,29.64,68.1-16.22,39.23-71.7,46.79-91.15,58.38-9.58,6.26-6.79,15.05,9.9,23.17,1.57.77,3.18,1.47,4.81,2.12,33.49,13.79,77.6,1.74,107.74-24.38,30.92-25.9,47.86-65.88,45.11-102.81,4.74-.89,9.62-.99,14.18-.24m1.79-10.96s0,0,0,0c-5.97-.97-12.36-.87-18.6.28-3.25.6-6.52,1.17-9.81,1.7.12,3.15.25,6.29.39,9.44,2.89,44.87-28.78,90.48-66.78,109.19-24.65,12.63-51.07,15.04-69.9,7.48-1.14-.45-2.26-.95-3.34-1.47-.01,0-.02-.01-.03-.02-.01,0-.02-.01-.03-.02-2.47-1.19-3.98-2.15-4.87-2.79.25-.23.58-.5,1.01-.8,4.75-3.25,14.57-6.49,24.7-10.25,24.51-8.73,55.72-23.58,67.59-53.1,6.12-14.74,5.55-29.8-.45-43.6-6.41-14.72-18.31-27.19-35.36-38.46-7.34-4.89-14.9-9.24-22.52-12.94-18.19-8.8-36.75-13.92-54.94-14.7-18.54-.77-35.59,3.02-49.22,12.18-11.51,7.7-17.2,19.52-14.84,33.77,2.28,14.01,12.58,28.22,27.2,36.93,10.81,6.48,22.96,9.43,34.63,8.52,6.92-.54,13.77-1.2,20.55-2-4.92-5.19-9.72-10.46-14.41-15.79-3.78-4.3-5.07-8.24.39-13.37,0,0,.02-.02.03-.03,0,0,.02-.02.03-.03,7.32-6.88,24.63-8.62,41.76-.79,2.25,1.03,4.45,2.22,6.57,3.53,4.19,2.67,6.58,5.61,7.06,8.81.7,4.61-2.42,10.02-8.8,14.67-10.33,7.5-27.83,11.85-47.08,15.21-29.19,5.35-61.09,7.49-78.26,24.48,0,0-.02.02-.03.03,0,0-.02.02-.03.03-21.6,21.34-12.3,54.37,29.31,80.94,5.66,3.59,11.7,6.88,17.93,9.75,43.95,20.46,100.86,20.39,150.27-1.96,30.96-13.76,57.24-35.36,74.57-58.89,18.42-24.91,26.46-49.97,26.56-71.29.06-12.18-5.28-19.82-9.63-24.17-5.55-5.5-12.95-9.05-21.62-10.47h0Z"/><path class="cls-6" d="m1143.49,1453.61c-4.19-.26-7.55-1.47-9.99-2.51-6.56-2.68-11.08-6.95-13-12.17-2.24-6.06-.81-12.76,3.78-19.42,6.01-8.95,15.07-13.8,25.19-13.53.26,0,.54.02.82.03,2.92.16,5.81.79,8.86,1.93.04.02.09.03.13.05,6.07,2.4,10.68,6.44,12.94,11.51,2.59,5.82,1.98,12.76-2.04,19.5-5.45,9.41-15.35,15.02-26.06,14.64-.25,0-.44-.02-.64-.03Z"/><path class="cls-5" d="m1149.99,1411.56c2.18.12,4.33.61,6.65,1.48,10.1,4,13.6,13.29,7.45,23.47-4.48,7.56-11.9,11.86-19.86,11.59-.13,0-.27-.01-.4-.02-2.67-.17-5-.91-7.28-1.87-10.99-4.48-13.27-13.88-6.51-23.8,4.92-7.5,11.9-11.06,19.33-10.86.2,0,.41.01.61.02m.61-11.09c-.36-.02-.72-.03-1.08-.04-12.46-.34-23.58,5.4-31,16.19-5.54,7.92-7.3,16.06-4.59,23.66,2.37,6.64,8.23,12.32,16.54,15.75,2.81,1.19,7.18,2.78,12.66,3.13.26.02.52.03.78.04.02,0,.03,0,.05,0,.02,0,.03,0,.05,0,13.54.48,25.83-6.37,32.33-17.82,4.76-8.16,5.29-16.64,2-23.85-2.97-6.47-8.82-11.58-16.46-14.59-.04-.02-.09-.03-.13-.05-.04-.02-.09-.03-.13-.05-3.76-1.39-7.35-2.17-11.03-2.37h0Z"/><path class="cls-6" d="m1478.45,1528.75c-4.52,2.05-9.25,3.7-14.01,4.9-22.65,6.4-42.36,2.93-52.12-6.96-23.29,25.74-49.6,36.62-67.5,40.79-2.1.49-4.22.93-6.31,1.3-31.28,5.45-51.59-4.39-55.48-23.5-5.82,2.45-12.09,4.34-18.74,5.64-10.77,11.44-32.17,28.43-57.41,29.35-.97.04-1.96.05-2.92.03-12.28-.17-22.57-4.28-29.26-10.97-.41,1.64-.62,3.09-.6,4.32.03,2.25.06,4.5.09,6.75-3.38-.43-6.76-.89-10.13-1.37-26.11-3.81-37.75-11.78-42.3-19.15-15.93,6.78-33.04,9.24-49.32,7.13-.75-.1-1.51-.2-2.27-.32-17.28-2.75-25.21-10.03-28.71-15.4-7.81-12.06-1.94-26.64,6.12-35.22.05-.05.09-.1.14-.15,22.26-20.12,42.72-41.34,61.31-63.43,1.52.27,3.04.54,4.56.81,25.95,4.27,30.27,13.57,30.44,19.27.52,9.72-6.56,21.19-13.92,32.11-4.32,6.52-11.87,17.22-10.57,20.23.47.18,1.44.5,2.84.62,5.04.44,11.32-1.89,17.5-6.63.12-.09.24-.18.36-.28,31.42-34.53,58.03-71.32,79.64-109.39,1.49.1,2.97.19,4.46.28,8.28.5,18.51,1.49,24.45,6.91,3.3,3.03,4.85,7.02,4.5,11.92-.45,3.93-4.53,14.04-19.5,40.65,9.6-4.84,19.03-8.21,27.27-9.34.85-.12,1.7-.21,2.52-.28,8.79-.73,16.05,1.21,21.16,5.83,4.55,4.12,7.3,10.41,8,18.77.63,7.54-.49,16.2-3.37,25.29,6-12.65,15.25-25.48,26.23-36.87,15.37-15.87,32.49-27.55,49.69-33.25,12.35-3.95,23.27-4.51,32.06-1.34,8.61,3.11,14.35,9.56,16.27,18.96,4.27,20.28-23.36,45.52-52.24,53.42-1.52.43-3.05.81-4.55,1.14-1.76.39-3.56.72-5.42.99.63,1.56,1.7,2.97,3.44,3.92,3.86,2.12,10.15,1.48,14.76.5,2.11-.48,4.2-1.04,6.23-1.65,13.92-4.2,25.13-11.27,30.84-18.96,4.27-16.48,16.89-38.02,40.99-49.15,1-.47,2.03-.91,3.05-1.33,5.53-2.25,10.22-3.51,14.19-4.09-3.48-2.38-6.49-4.93-8.17-8.41-2.71-5.45-2.35-12.01.85-18.46,3.45-6.93,9.75-13.24,17.43-17.53.67-.37,1.35-.73,2.03-1.07,16.11-7.95,31.83-7.37,36.83,2.52,2.64,5.32,2.11,10.13-1.63,14.25-.19,1.96,3.67,6.17,6.58,9.3,4.97,5.39,11.27,12.02,15.27,21.97.78,1.88,1.4,3.84,1.84,5.86,3.83-5.66,6.65-10.98,8.39-15.75.84-2.29,1.66-4.58,2.47-6.88,8.17.02,16.4-.13,24.71-.46-.73,2.12-1.48,4.24-2.23,6.35-11.01,32.57-49.36,75.05-85.37,92.76-1.79.96-3.63,1.88-5.47,2.71,0,0,0,0,0,0Zm-23.78-42.19c1.57-.25,3.23-.66,4.93-1.24.05-.02.1-.03.15-.05,1.41-.46,2.82-1.02,4.19-1.65.81-.38,1.61-.77,2.38-1.19-.21.1-.41.2-.62.29-2.23,1.04-4.49,1.9-6.72,2.57-1.44.43-2.87.85-4.31,1.27Zm-10.6-1.8c.8.63,1.76,1.12,2.86,1.47,1.43-2.49,2.84-4.99,4.23-7.49,1.67-3.01,1.62-5.98.62-7.11-.27-.31-.5-.43-1.2-.35-1.21.19-2.27.48-3.16.87-.66.29-2.65,1.17-3.93,4.09-1.45,3.33-.9,7.05.58,8.53Zm-245.68,41.48c3.76.15,7.74.52,11.71.95,12.77-10.2,19.08-26.85,16.57-30.51-.04,0-.09,0-.13,0-2.13.15-6.85,1.75-16.04,10.25-4.17,6.48-8.15,13.01-12.12,19.3Zm158.83-37.33c15.72-4.53,20.8-11.2,21.97-13.04.97-1.55,1.02-2.48.96-2.81-.44-.05-1.66,0-3.8.65-.07.02-.15.04-.22.07-.22.07-.45.13-.67.2-6.6,2.14-13.64,8.14-18.32,14.95.03,0,.06-.01.08-.02Z"/><path class="cls-5" d="m1223.75,1415.07c14.88.84,23.61,3.58,22.84,13.18-.39,4.55-14.03,31.3-32.59,60.49,15.51-12.25,34.03-21.64,47.82-23.58.68-.09,1.36-.17,2.02-.22,13.07-1.11,20.39,5.45,21.48,19.95,1.04,14.23-4.87,32.53-16.18,48.93,9.31-2.12,17.55-5.93,23.26-11.99,9.75-31.73,42.35-66.37,74.65-77.41,20.85-6.72,36.04-1.5,39.23,14.44,3.29,16.67-20.85,38.96-46.41,45.98-1.32.37-2.63.7-3.95.99-4.42.98-8.92,1.46-13.12,1.61-.8,12.81,9.27,18.66,27.58,14.83,2.4-.54,4.76-1.17,7.06-1.86,16.68-5.03,30.13-13.86,36.68-23.58,3.81-16.78,16.24-35.7,35.87-44.8.84-.39,1.69-.76,2.56-1.11,17.64-7.25,27.05-2.82,27.85,5.58.58,9.09-8.17,17.07-17.05,21.18-1.75.81-3.49,1.48-5.17,1.98,3.93-7.19,2.31-15.57-6.84-14.35-2.34.35-4.38.95-6.18,1.74-11.12,4.9-12.48,17.6-7.57,22.3,5.02,4.22,13.92,4.62,23.2,1.45,1.87-.61,3.7-1.33,5.46-2.15,15.57-7.15,26.09-21.56,23.49-32.7-3.64-15-21.86-17.39-26.12-26.22-4.97-9.85,3.41-21.73,14.1-27.73.51-.29,1.04-.56,1.56-.82,11.21-5.5,23.93-6.79,27.81,1.16,1.77,3.68,1.63,6.34-.89,8.45-6.4,9.8,12.3,16.56,20.46,37.1,2.63,6.55,3.04,14.05,1.08,21.7,11.12-11.86,19.91-24.69,23.85-35.71,3.44-.01,6.89-.06,10.36-.13-9.99,29.12-46.18,70.47-80.99,87.52-1.58.86-3.19,1.65-4.81,2.39-3.91,1.77-7.94,3.17-12.07,4.22-23.53,6.76-45.07,1.56-49.82-13.62-20.38,26.98-46.8,42.22-70.72,47.79-1.9.45-3.79.84-5.65,1.17-28.23,4.94-46.58-4.13-47.56-24.9-.06-1.12-.08-2.25-.05-3.39-9.7,6.12-20.29,9.51-30.75,11.17-14.71,16.05-34.54,27.95-52.86,28.6-.76.03-1.52.04-2.28.03-16.87-.24-28.51-9.82-30.16-23.75-5.42,9.44-8.55,17.38-8.55,22.61-29.44-4.31-39.09-13.82-38.32-23.58-16.3,9.24-35.3,13.94-54.4,11.46-.66-.08-1.31-.18-1.95-.28-33.83-5.7-27.06-30.57-16.76-41.55,21.05-19.39,40.47-39.76,58.18-60.91,15.62,2.67,24.23,7.29,24.37,13.73,1.45,19.09-36.58,49.43-21.55,56.92,1.27.59,3.54,1.4,6.64,1.67,5.63.5,14.09-.78,23.8-8.3.05.03.1.06.15.1,30.65-34.1,56.68-70.35,77.89-107.8m-39.11,118.32c2.37-1.11,5.49-1.58,9.19-1.66,5.29-.11,11.77.59,18.94,1.4,19.03-12.95,30.18-42.54,14.14-42.03-.26,0-.52.02-.78.04-8.2.61-16.66,7.97-22.09,12.92-5.46,8.29-10.51,16.53-15.73,24.49-1.22,1.62-2.44,3.23-3.68,4.83m174.11-39.15c34.27-10.19,36.06-32.48,16.05-25.87-.35.1-.69.2-1.03.31-12.9,4.2-24.67,17.18-28.34,28.28,4.87-.65,9.31-1.59,13.32-2.73m-142.64-90.85c-1.32,2.32-2.66,4.63-4.01,6.94-21.42,36.46-47.49,71.67-78.03,104.72-1.26.94-2.44,1.72-3.53,2.36,2.03-3.41,4.59-7.25,6.46-10.1,7.62-11.56,14.92-23.7,14.24-34.81-.29-6.18-4.7-19.46-36.52-24.63-3.02-.52-6.03-1.06-9.04-1.63-1.67,1.98-3.36,3.94-5.06,5.9-18.03,20.79-37.76,40.76-59.11,59.72-.1.09-.2.18-.31.27-.09.1-.19.19-.28.29-9.51,9.93-16.03,26.15-6.94,40.43,6.14,9.61,18.8,16.74,35.32,19.33.87.14,1.77.26,2.67.38,15.57,2.01,31.73.29,47-4.98,7.07,6.7,20.13,13.49,43.44,16.89,6.79.98,13.6,1.85,20.44,2.64-.04-1.71-.09-3.43-.13-5.14,6.23,2.43,13.33,3.79,20.81,3.9,1.17.02,2.37,0,3.56-.04,27.39-1,49.99-17.85,62.04-30.22,2.71-.62,5.37-1.32,7.96-2.12,2.92,6.79,8.07,12.34,15.4,16.24,11.42,6.09,27.73,7.93,46.63,4.6,2.31-.41,4.66-.89,6.98-1.44,17.68-4.13,42.76-14.19,65.82-36.74,12.16,7.37,31.38,9.24,52.85,3.25,5.42-1.37,10.8-3.25,15.96-5.59,2.07-.93,4.13-1.95,6.15-3.04,38.11-18.8,78.43-63.78,89.76-98.08,1.49-4.26,2.94-8.53,4.34-12.79-4.59.27-9.17.48-13.72.64-3.44.12-6.87.21-10.29.27-5.01.09-10,.11-14.95.06-1.39,4-2.83,8-4.31,12-4.03-6.64-8.81-11.6-12.53-15.52-1.64-1.72-3.71-3.92-4.85-5.48,2.59-4.39,3.8-10.23.31-17.06-6.62-12.64-26.15-13.49-45.83-3.78-.83.41-1.67.85-2.48,1.31-9.31,5.2-16.97,12.83-21.22,21.26-3.99,7.95-4.55,16.07-1.26,22.94.48,1.02,1.04,1.97,1.68,2.86-.86.32-1.73.66-2.63,1.03-1.19.48-2.38,1-3.54,1.54-8.85,4.1-16.89,9.7-23.89,16.61-.06-1.31-.22-2.61-.48-3.89,0-.01,0-.03,0-.04,0-.01,0-.03,0-.04-2.34-10.83-9.52-18.55-19.75-22.17-10.57-3.73-23.35-3.11-37.51,1.42-.03,0-.06.02-.09.03-.03,0-.06.02-.09.03-18.67,6.19-37.1,18.63-53.59,35.49-3.54,3.62-6.9,7.4-10.06,11.26-1.21-8.46-4.4-14.76-9.53-19.33-6.58-5.85-16.09-8.4-27.03-7.48-.98.08-2,.19-3.01.33-3.96.54-8.1,1.51-12.36,2.84,9.5-18.44,11.74-24.76,12.06-28.57,0,0,0-.02,0-.03,0,0,0-.02,0-.03.48-8.02-3.23-13.01-6.33-15.83-7.58-6.82-19.32-8-28.76-8.57-2.95-.17-5.89-.36-8.82-.58h0Z"/></svg>